<?xml version="1.0" encoding="UTF-8" standalone="no"?>
<svg
   viewBox="0 0 335.201 130.353"
   version="1.1"
   id="svg40"
   xmlns="http://www.w3.org/2000/svg"
   xmlns:svg="http://www.w3.org/2000/svg">
  <defs
     id="defs44" />
  <g
     id="g38">
    <path
       d="M104,29.537a3.148,3.148,0,0,0-4.084-1.387c-.979.34-2.565,2.349-2.565,2.349-.757.841-6.2,12.347-10.711,20.232s-3.948,2.482-3.815-.081a25.447,25.447,0,0,1,1.461-6.89c.6-1.668,2.024-8.339,2.71-10.89.742-2.765,1.656-7.062,2.907-11.749,1.561-5.848-.809-6.842-.809-6.842-4.241-2.663-5.5.885-5.5.885-.543.891-4.3,15.38-4.3,15.38-.5,2.705-4.226,15.058-5.925,18.055s-3.114.3-3.021-1.593.193-3.592.428-7.8c.253-4.57.3-6.252.3-6.252.727-3.671,1.619-13.51,1.619-13.51l.756-7.274c.1-1.9.8-3.318-1.832-4.821-2.718-1.555-4.352-.2-5.051.876S64.923,14.4,64.923,14.4a36.192,36.192,0,0,1-.38,4.649C64.3,20.119,63,29.753,63,29.753c-1.047,3.6-1.8,14.822-1.8,14.822-.671,8.874-6.472,6-6.755.939-.2-3.579-2.4-13.189-2.921-14.886s-2.881-13.071-2.881-13.071c-.149-.825-1.587-4.045-3.94-3.5-2.322.539-4.034.545-3.389,5.129.464,3.286,1.761,16.841,2.381,18.562s1.63,7.2,1.63,7.2A51.126,51.126,0,0,0,46.3,53.6a46.255,46.255,0,0,0,6.608.113,7.8,7.8,0,0,1,4.532,1.21A9.254,9.254,0,0,0,62,56.528a9,9,0,0,1,3.756.4,7.936,7.936,0,0,0,3.652.648c1.566-.042,2.734.117,2.4,1.679-.213.989-1.76,1.947-3.164,2.223s-3.291-.643-4.734-.494c-4.352.448-5.187-.621-5.942.116A2.43,2.43,0,0,0,58,63.582a31.983,31.983,0,0,1,1.713,3.8,6.294,6.294,0,0,0,2.007,2.37,25.3,25.3,0,0,1,3.259,2.985S67,74.371,67.745,74.791s5.33,4.825,6.494,5.848c1.624,1.426,1.02,1.949.362,2.849s-2.157.208-2.46-.04c0,0-4.3-3.3-5-3.749a53.041,53.041,0,0,1-5.567-4.381c-1.64-1.7-4.57-.956-2.107,2.389a55.351,55.351,0,0,1,3.874,5.8s2.474,3.806,2.713,4.26a16.9,16.9,0,0,0,1.28,1.763,15.725,15.725,0,0,1,1.3,2.682c.082.6-.086,1.572-1.522,1.849-1.389.27-1.573-.446-2.116-1.148l-1.948-2.805s-2.679-3.756-3.539-5.277c0,0-.5-.608-1.8-2.3-1.2-1.561-1.68-2.192-2.224-2.89s-1.865-1.225-1.555.355a53.824,53.824,0,0,0,3.4,8.2s3.079,6.275,3.158,6.755c0,0,.633,1.641-1.679,1.989,0,0-1.143.372-2.37-2.176-.984-2.039-1.968-3.839-2.548-5.044-.533-1.113-2.061-3.907-2.355-4.68a11.84,11.84,0,0,0-1.579-2.884c-.733-.949-2.182-3.032-1.376,1.132s2.377,9.9,2.365,10.425a4.416,4.416,0,0,1-.194,1.612,1.47,1.47,0,0,1-1.869.754s-.851-.073-1.355-2.015c0,0-2.738-8.6-3-10.088s-.881-4.582-2.558-6.608a34.249,34.249,0,0,1-3.516-4.76,37.186,37.186,0,0,0-7.792-7.074c-2.549-1.772-4.332-5.9-6.995-7.41s-6.51-2.119-8.238-.811c-2.726,2.064-1.051,3.953,1.549,6.07A17.017,17.017,0,0,1,22,69.524c1.258,2.883,5.536,5.892,5.536,5.892,1.816,1.43,3.942,4.959,5.171,8.962a16.726,16.726,0,0,0,5.665,8.288c1.842,1.324,15.361,12.209,16.866,18.517,1.368,5.735,26.426,10.607,27.216-10.53a27.973,27.973,0,0,1,1.422-6.215C89.254,84.724,89,74.968,89.1,69.575c.107-5.63,3.419-11.516,5.07-14.3S103.381,34.7,103.381,34.7C105.276,30.844,104,29.537,104,29.537Z"
       fill="#2b3990"
       id="path2" />
    <g
       id="g36">
      <rect
         x="117.703"
         y="67.412"
         width="197.843"
         height="42.794"
         fill="#e14627"
         id="rect16" />
    </g>
  </g>
  <g
     aria-label="Volunteers"
     id="text327"
     style="font-size:36.8148px;line-height:1.35;font-family:Outfit;-inkscape-font-specification:Outfit;letter-spacing:-0.276111px;fill:#ffffff;stroke-width:0.920371">
    <path
       d="M 136.99124,102.7411 126.97761,76.749848 h 6.18489 l 7.62066,21.02125 h -2.54022 l 7.73111,-21.02125 h 6.11125 L 141.96123,102.7411 Z"
       style="font-weight:bold;-inkscape-font-specification:'Outfit Bold'"
       id="path3222" />
    <path
       d="m 159.13531,103.14606 q -2.76111,0 -5.00681,-1.21489 -2.20889,-1.2517 -3.49741,-3.386961 -1.28852,-2.135258 -1.28852,-4.785924 0,-2.650665 1.28852,-4.749109 1.28852,-2.098444 3.49741,-3.313332 2.20888,-1.251703 5.00681,-1.251703 2.79792,0 5.00681,1.214888 2.20889,1.214889 3.49741,3.350147 1.28852,2.098444 1.28852,4.749109 0,2.650666 -1.28852,4.785924 -1.28852,2.135261 -3.49741,3.386961 -2.20889,1.21489 -5.00681,1.21489 z m 0,-5.117258 q 1.21489,0 2.13526,-0.515407 0.92037,-0.552222 1.39896,-1.509407 0.51541,-0.994 0.51541,-2.245703 0,-1.251703 -0.51541,-2.172073 -0.51541,-0.957185 -1.43578,-1.472592 -0.88355,-0.552222 -2.09844,-0.552222 -1.17807,0 -2.09844,0.552222 -0.92037,0.515407 -1.43578,1.472592 -0.51541,0.957185 -0.51541,2.208888 0,1.214888 0.51541,2.208888 0.51541,0.957185 1.43578,1.509407 0.92037,0.515407 2.09844,0.515407 z"
       style="font-weight:bold;-inkscape-font-specification:'Outfit Bold'"
       id="path3224" />
    <path
       d="M 171.44987,102.7411 V 76.013552 h 5.63266 V 102.7411 Z"
       style="font-weight:bold;-inkscape-font-specification:'Outfit Bold'"
       id="path3226" />
    <path
       d="m 188.75281,103.14606 q -2.46659,0 -4.38096,-0.994 -1.87755,-1.03081 -2.94518,-2.797925 -1.06763,-1.803925 -1.06763,-4.123258 V 84.849104 h 5.63266 v 10.308144 q 0,0.92037 0.29452,1.583036 0.33133,0.662666 0.95719,1.030814 0.62585,0.368148 1.5094,0.368148 1.25171,0 1.988,-0.77311 0.7363,-0.809926 0.7363,-2.208888 V 84.849104 h 5.63266 v 10.344958 q 0,2.356148 -1.06763,4.160073 -1.06763,1.767115 -2.94518,2.797925 -1.87756,0.994 -4.34415,0.994 z"
       style="font-weight:bold;-inkscape-font-specification:'Outfit Bold'"
       id="path3228" />
    <path
       d="M 212.18542,102.7411 V 92.543397 q 0,-1.398963 -0.88356,-2.245703 -0.84674,-0.883555 -2.17207,-0.883555 -0.92037,0 -1.61985,0.404963 -0.69948,0.368148 -1.10445,1.104444 -0.40496,0.699481 -0.40496,1.619851 l -2.17207,-1.067629 q 0,-2.098444 0.92037,-3.68148 0.92037,-1.583037 2.54022,-2.429777 1.65667,-0.883555 3.71829,-0.883555 1.988,0 3.49741,0.957184 1.54622,0.92037 2.42978,2.466592 0.88355,1.546222 0.88355,3.386962 V 102.7411 Z m -11.81755,0 V 84.849104 h 5.63266 V 102.7411 Z"
       style="font-weight:bold;-inkscape-font-specification:'Outfit Bold'"
       id="path3230" />
    <path
       d="M 223.58882,102.7411 V 77.449329 h 5.63267 V 102.7411 Z m -4.04963,-13.106072 v -4.785924 h 13.73192 v 4.785924 z"
       style="font-weight:bold;-inkscape-font-specification:'Outfit Bold'"
       id="path3232" />
    <path
       d="m 243.929,103.14606 q -2.90837,0 -5.19089,-1.17807 -2.2457,-1.21489 -3.53422,-3.350151 -1.28852,-2.135259 -1.28852,-4.822739 0,-2.68748 1.2517,-4.785924 1.28852,-2.135258 3.4606,-3.350147 2.17207,-1.214888 4.89636,-1.214888 2.65067,0 4.67548,1.141259 2.02482,1.141258 3.16608,3.166072 1.17807,2.024814 1.17807,4.638665 0,0.478593 -0.0736,1.030815 -0.0368,0.515407 -0.18407,1.214888 l -15.4254,0.03682 v -3.865554 l 13.03243,-0.03682 -2.42977,1.619851 q -0.0368,-1.546221 -0.47859,-2.540221 -0.44178,-1.030814 -1.32534,-1.546222 -0.84674,-0.552222 -2.09844,-0.552222 -1.32533,0 -2.31933,0.625852 -0.95719,0.589037 -1.50941,1.693481 -0.51541,1.104444 -0.51541,2.68748 0,1.583037 0.55222,2.724295 0.58904,1.104444 1.61986,1.730296 1.06763,0.589037 2.5034,0.589037 1.32534,0 2.39296,-0.441778 1.06763,-0.478592 1.87756,-1.398962 l 3.09244,3.092447 q -1.32533,1.54622 -3.20289,2.31933 -1.87755,0.77311 -4.12325,0.77311 z"
       style="font-weight:bold;-inkscape-font-specification:'Outfit Bold'"
       id="path3234" />
    <path
       d="m 263.8274,103.14606 q -2.90837,0 -5.19088,-1.17807 -2.24571,-1.21489 -3.53422,-3.350151 -1.28852,-2.135259 -1.28852,-4.822739 0,-2.68748 1.2517,-4.785924 1.28852,-2.135258 3.46059,-3.350147 2.17208,-1.214888 4.89637,-1.214888 2.65067,0 4.67548,1.141259 2.02481,1.141258 3.16607,3.166072 1.17808,2.024814 1.17808,4.638665 0,0.478593 -0.0736,1.030815 -0.0368,0.515407 -0.18408,1.214888 l -15.4254,0.03682 v -3.865554 l 13.03244,-0.03682 -2.42978,1.619851 q -0.0368,-1.546221 -0.47859,-2.540221 -0.44178,-1.030814 -1.32533,-1.546222 -0.84674,-0.552222 -2.09844,-0.552222 -1.32534,0 -2.31934,0.625852 -0.95718,0.589037 -1.5094,1.693481 -0.51541,1.104444 -0.51541,2.68748 0,1.583037 0.55222,2.724295 0.58904,1.104444 1.61985,1.730296 1.06763,0.589037 2.50341,0.589037 1.32533,0 2.39296,-0.441778 1.06763,-0.478592 1.87756,-1.398962 l 3.09244,3.092447 q -1.32533,1.54622 -3.20289,2.31933 -1.87755,0.77311 -4.12326,0.77311 z"
       style="font-weight:bold;-inkscape-font-specification:'Outfit Bold'"
       id="path3236" />
    <path
       d="M 274.89026,102.7411 V 84.849104 h 5.63266 V 102.7411 Z m 5.63266,-9.829555 -2.35614,-1.84074 q 0.69948,-3.129258 2.35614,-4.859554 1.65667,-1.730295 4.60185,-1.730295 1.28852,0 2.24571,0.404962 0.994,0.368148 1.73029,1.178074 l -3.35014,4.233702 q -0.36815,-0.404963 -0.92037,-0.625852 -0.55223,-0.220888 -1.25171,-0.220888 -1.39896,0 -2.2457,0.883555 -0.80993,0.84674 -0.80993,2.577036 z"
       style="font-weight:bold;-inkscape-font-specification:'Outfit Bold'"
       id="path3238" />
    <path
       d="m 296.44534,103.18287 q -1.58303,0 -3.12926,-0.40496 -1.5094,-0.40496 -2.83473,-1.14126 -1.28852,-0.77311 -2.20889,-1.767108 l 3.20288,-3.239702 q 0.88356,0.957184 2.09845,1.509406 1.21489,0.515408 2.65066,0.515408 0.994,0 1.50941,-0.294519 0.55222,-0.294518 0.55222,-0.809925 0,-0.662667 -0.66266,-0.994 -0.62586,-0.368148 -1.61985,-0.625852 -0.994,-0.294518 -2.09845,-0.625851 -1.10444,-0.331333 -2.09844,-0.92037 -0.994,-0.589037 -1.61985,-1.619851 -0.62585,-1.06763 -0.62585,-2.687481 0,-1.730295 0.88355,-2.981999 0.88356,-1.288518 2.50341,-2.024814 1.61985,-0.736296 3.79192,-0.736296 2.28252,0 4.19689,0.809926 1.95118,0.773111 3.16607,2.319332 l -3.20289,3.239703 q -0.84674,-0.994 -1.91437,-1.398963 -1.03081,-0.404962 -2.02481,-0.404962 -0.95718,0 -1.43578,0.294518 -0.47859,0.257704 -0.47859,0.773111 0,0.552222 0.62585,0.883555 0.62585,0.331333 1.61985,0.589037 0.994,0.257703 2.09845,0.625851 1.10444,0.368148 2.09844,0.994 0.994,0.625852 1.61985,1.693481 0.62585,1.030814 0.62585,2.724295 0,2.61385 -1.988,4.16007 -1.95118,1.54622 -5.30133,1.54622 z"
       style="font-weight:bold;-inkscape-font-specification:'Outfit Bold'"
       id="path3240" />
  </g>
  <g
     aria-label="BOSTON"
     id="text327-9"
     style="font-size:50.0551px;line-height:1.25;font-family:Outfit;-inkscape-font-specification:Outfit;letter-spacing:-2.7px;fill:#e14627;stroke-width:1.25138">
    <path
       d="m 129.22694,57.749504 v -3.253581 h 10.91201 q 3.40374,0 5.35589,-1.902094 1.95215,-1.902094 1.95215,-4.755235 0,-1.852038 -0.85093,-3.353691 -0.85094,-1.501653 -2.4527,-2.35259 -1.55171,-0.900992 -3.70408,-0.900992 h -11.21234 v -3.203526 h 10.66173 q 2.80309,0 4.40485,-1.501653 1.65182,-1.501653 1.65182,-4.254684 0,-2.75303 -1.75193,-4.254683 -1.75193,-1.501653 -4.70518,-1.501653 h -10.26129 v -3.203526 h 10.3614 q 3.20353,0 5.45601,1.151267 2.25248,1.151267 3.40374,3.103416 1.15127,1.952149 1.15127,4.404849 0,2.903196 -1.50165,5.00551 -1.50165,2.052259 -4.40485,3.153471 l 0.35039,-1.201322 q 3.35369,1.051157 5.20573,3.453802 1.90209,2.402644 1.90209,5.706281 0,2.75303 -1.35149,4.955455 -1.30143,2.152369 -3.85424,3.453802 -2.50276,1.251377 -6.05667,1.251377 z m -2.35259,0 V 23.311596 h 3.65402 v 34.437908 z"
       style="font-weight:300;-inkscape-font-specification:'Outfit Light'"
       id="path3209" />
    <path
       d="m 170.97586,58.250055 q -3.65402,0 -6.80749,-1.351488 -3.10342,-1.401542 -5.45601,-3.804187 -2.35259,-2.4527 -3.70407,-5.656226 -1.30144,-3.253582 -1.30144,-6.957659 0,-3.754133 1.30144,-6.957659 1.30143,-3.203526 3.65402,-5.606171 2.35259,-2.402645 5.45601,-3.754133 3.10341,-1.351487 6.75743,-1.351487 3.65403,0 6.75744,1.351487 3.15347,1.351488 5.50606,3.754133 2.35259,2.402645 3.65403,5.656226 1.30143,3.203526 1.30143,6.957659 0,3.704077 -1.30143,6.957659 -1.30144,3.203526 -3.65403,5.606171 -2.30253,2.402645 -5.40595,3.804187 -3.10341,1.351488 -6.75744,1.351488 z m -0.10011,-3.553912 q 3.9043,0 6.90761,-1.852039 3.05336,-1.852038 4.75523,-5.055565 1.75193,-3.203526 1.75193,-7.308044 0,-3.053361 -1.0011,-5.606171 -1.0011,-2.602866 -2.80309,-4.504959 -1.80198,-1.952149 -4.25468,-3.003306 -2.40265,-1.051157 -5.3559,-1.051157 -3.85424,0 -6.9076,1.852038 -3.00331,1.801984 -4.75523,5.00551 -1.70188,3.203527 -1.70188,7.308045 0,3.053361 1.0011,5.656226 1.00111,2.602865 2.80309,4.555014 1.80198,1.902094 4.25468,2.953251 2.4527,1.051157 5.30584,1.051157 z"
       style="font-weight:300;-inkscape-font-specification:'Outfit Light'"
       id="path3211" />
    <path
       d="m 200.96188,58.250055 q -4.00441,0 -6.9076,-1.501653 -2.9032,-1.551708 -5.10562,-4.304738 l 2.55281,-2.502755 q 1.75192,2.452699 4.05446,3.654022 2.35259,1.201322 5.55612,1.201322 3.30363,0 5.35589,-1.501653 2.05226,-1.501653 2.05226,-4.154573 0,-2.052259 -0.95105,-3.353692 -0.95104,-1.351487 -2.50275,-2.152369 -1.50165,-0.850937 -3.35369,-1.501653 -1.85204,-0.650716 -3.70408,-1.351488 -1.80198,-0.750826 -3.35369,-1.852038 -1.55171,-1.101213 -2.50276,-2.803086 -0.90099,-1.701873 -0.90099,-4.354794 0,-2.803085 1.35149,-4.805289 1.35149,-2.002204 3.70408,-3.053361 2.35259,-1.101212 5.35589,-1.101212 3.35369,0 5.95656,1.301432 2.65292,1.301433 4.40485,3.503857 l -2.50276,2.502755 q -1.60176,-1.902094 -3.50386,-2.903196 -1.90209,-1.001102 -4.4549,-1.001102 -3.0033,0 -4.80529,1.401543 -1.80198,1.401543 -1.80198,3.904298 0,1.952149 0.90099,3.153471 0.95105,1.201323 2.50275,2.002204 1.55171,0.800882 3.3537,1.451598 1.85204,0.600661 3.70407,1.351488 1.85204,0.750826 3.3537,1.902094 1.5517,1.151267 2.50275,2.95325 0.95105,1.751929 0.95105,4.504959 0,4.454904 -3.05336,6.957659 -3.00331,2.4527 -8.20904,2.4527 z"
       style="font-weight:300;-inkscape-font-specification:'Outfit Light'"
       id="path3213" />
    <path
       d="M 224.29058,57.749504 V 24.262643 h 3.70408 V 57.749504 Z M 212.17725,26.665287 v -3.353691 h 27.93074 v 3.353691 z"
       style="font-weight:300;-inkscape-font-specification:'Outfit Light'"
       id="path3215" />
    <path
       d="m 256.42891,58.250055 q -3.65402,0 -6.80749,-1.351488 -3.10342,-1.401542 -5.45601,-3.804187 -2.35259,-2.4527 -3.70408,-5.656226 -1.30143,-3.253582 -1.30143,-6.957659 0,-3.754133 1.30143,-6.957659 1.30144,-3.203526 3.65403,-5.606171 2.35259,-2.402645 5.456,-3.754133 3.10342,-1.351487 6.75744,-1.351487 3.65402,0 6.75744,1.351487 3.15347,1.351488 5.50606,3.754133 2.35259,2.402645 3.65402,5.656226 1.30143,3.203526 1.30143,6.957659 0,3.704077 -1.30143,6.957659 -1.30143,3.203526 -3.65402,5.606171 -2.30253,2.402645 -5.40595,3.804187 -3.10342,1.351488 -6.75744,1.351488 z m -0.10011,-3.553912 q 3.9043,0 6.9076,-1.852039 3.05337,-1.852038 4.75524,-5.055565 1.75193,-3.203526 1.75193,-7.308044 0,-3.053361 -1.00111,-5.606171 -1.0011,-2.602866 -2.80308,-4.504959 -1.80198,-1.952149 -4.25468,-3.003306 -2.40265,-1.051157 -5.3559,-1.051157 -3.85424,0 -6.9076,1.852038 -3.00331,1.801984 -4.75524,5.00551 -1.70187,3.203527 -1.70187,7.308045 0,3.053361 1.0011,5.656226 1.0011,2.602865 2.80309,4.555014 1.80198,1.902094 4.25468,2.953251 2.4527,1.051157 5.30584,1.051157 z"
       style="font-weight:300;-inkscape-font-specification:'Outfit Light'"
       id="path3217" />
    <path
       d="M 277.95561,57.749504 V 23.311596 h 2.60287 l 1.05116,4.354793 v 30.083115 z m 23.82623,0 -21.77397,-29.532509 0.55061,-4.905399 21.72391,29.532508 z m 0,0 -1.10121,-4.154573 V 23.311596 h 3.70408 v 34.437908 z"
       style="font-weight:300;-inkscape-font-specification:'Outfit Light'"
       id="path3219" />
  </g>
</svg>
